<svg xmlns="http://www.w3.org/2000/svg" version="1.1" xmlns:xlink="http://www.w3.org/1999/xlink" xmlns:svgjs="http://svgjs.dev/svgjs" width="1500" height="1500" viewBox="0 0 1500 1500"><rect width="1500" height="1500" fill="#463746"></rect><g transform="matrix(0.6666666666666666,0,0,0.6666666666666666,249.39393939393938,435.99032258064517)"><svg viewBox="0 0 396 248" data-background-color="#463746" preserveAspectRatio="xMidYMid meet" height="939" width="1500" xmlns="http://www.w3.org/2000/svg" xmlns:xlink="http://www.w3.org/1999/xlink"><g id="tight-bounds" transform="matrix(1,0,0,1,0.2400000000000091,0.4000000000000057)"><svg viewBox="0 0 395.52 247.2" height="247.2" width="395.52"><g><svg></svg></g><g><svg viewBox="0 0 395.52 247.2" height="247.2" width="395.52"><g transform="matrix(1,0,0,1,75.54432,100.4858924799315)"><svg viewBox="0 0 244.43135999999998 46.228215040136995" height="46.228215040136995" width="244.43135999999998"><g><svg viewBox="0 0 244.43135999999998 46.228215040136995" height="46.228215040136995" width="244.43135999999998"><g><svg viewBox="0 0 244.43136 46.228215040137" height="46.228215040136995" width="244.43135999999998"><g><svg viewBox="0 0 244.43136 46.228215040137" height="46.228215040137" width="244.43136"><g id="textblocktransform"><svg viewBox="0 0 244.43136 46.228215040137" height="46.228215040137" width="244.43136" id="textblock"><g><svg viewBox="0 0 244.43136 46.228215040137" height="46.228215040137" width="244.43136"><g transform="matrix(1,0,0,1,0,0)"><svg width="244.43136" viewBox="4.88 -32.38 231.07999999999998 44.18000000000001" height="46.228215040137" data-palette-color="#d7a49f"><g class="wordmark-text-0" data-fill-palette-color="primary" id="text-0"><path d="M26.45 0L21.73 0 21.73-14.1Q21.73-17.23 20.24-18.84 18.75-20.45 16.23-20.45L16.23-20.45Q14.23-20.45 12.74-19.36 11.25-18.28 10.44-16.19 9.63-14.1 9.63-11.1L9.63-11.1 7.93-11.1Q7.93-15.53 9.06-18.55 10.2-21.58 12.33-23.14 14.45-24.7 17.43-24.7L17.43-24.7Q20.33-24.7 22.34-23.4 24.35-22.1 25.4-19.71 26.45-17.32 26.45-14.1L26.45-14.1 26.45 0ZM9.63 0L4.88 0 4.88-24.05 9-24.05 9.63-18.85 9.63 0ZM67.72 0.65L67.72 0.65Q65.62 0.65 63.77-0.28 61.92-1.2 59.8-3.13L59.8-3.13 43.65-17.53Q41.92-19.03 40.91-20.89 39.9-22.75 39.9-24.78L39.9-24.78Q39.9-26.95 41.11-28.66 42.32-30.38 44.62-31.38 46.92-32.38 50.12-32.38L50.12-32.38Q53.17-32.38 55.39-31.38 57.6-30.38 58.81-28.68 60.02-26.98 60.02-24.88L60.02-24.88Q60.02-22.8 59.02-21.09 58.02-19.38 55.94-17.96 53.85-16.55 50.57-15.33L50.57-15.33 48.02-17.75Q50.6-18.82 52.06-19.86 53.52-20.9 54.15-22.01 54.77-23.13 54.77-24.43L54.77-24.43Q54.77-26.1 53.5-27.2 52.22-28.3 50.12-28.3L50.12-28.3Q47.65-28.3 46.37-27.06 45.1-25.83 45.1-24.1L45.1-24.1Q45.1-22.83 45.72-21.69 46.35-20.55 47.7-19.33L47.7-19.33 63.6-5.18Q64.57-4.35 65.37-3.95 66.17-3.55 67.32-3.55L67.32-3.55Q68.55-3.55 69.47-4.48 70.4-5.4 70.52-7.48L70.52-7.48 74.9-7.48Q74.77-3.7 72.98-1.53 71.2 0.65 67.72 0.65ZM47.87 0.65L47.87 0.65Q45.17 0.65 42.86-0.09 40.55-0.83 38.8-2.13 37.05-3.43 36.07-5.16 35.1-6.9 35.1-8.93L35.1-8.93Q35.1-12.78 38.19-14.73 41.27-16.68 46.95-17.15L46.95-17.15 48.32-14.48Q44.17-14.08 42.25-12.76 40.32-11.45 40.32-9.18L40.32-9.18Q40.32-7.65 41.21-6.4 42.1-5.15 43.8-4.4 45.5-3.65 47.92-3.65L47.92-3.65Q50.87-3.65 53.35-4.85 55.82-6.05 57.87-8.16 59.92-10.28 61.55-13.1 63.17-15.93 64.37-19.18L64.37-19.18 67.62-17.38Q66.35-13.48 64.46-10.2 62.57-6.93 60.1-4.49 57.62-2.05 54.57-0.7 51.52 0.65 47.87 0.65ZM93.67 0.65L93.67 0.65Q91.05 0.65 89.12-0.54 87.2-1.73 86.18-4.04 85.17-6.35 85.17-9.78L85.17-9.78 87.02-9.78Q87.02-7.8 87.87-6.44 88.72-5.08 90.11-4.36 91.5-3.65 93.07-3.65L93.07-3.65Q94.72-3.65 96.28-4.59 97.85-5.53 98.85-7.4 99.85-9.28 99.85-12.05L99.85-12.05Q99.85-14.7 98.96-16.57 98.07-18.45 96.55-19.45 95.02-20.45 93.12-20.45L93.12-20.45Q91.52-20.45 90.12-19.69 88.72-18.93 87.87-17.46 87.02-16 87.02-13.9L87.02-13.9 85.17-13.9Q85.17-17.53 86.33-19.93 87.5-22.33 89.47-23.51 91.45-24.7 93.85-24.7L93.85-24.7Q96.67-24.7 99.15-23.19 101.62-21.68 103.16-18.85 104.7-16.03 104.7-12.05L104.7-12.05Q104.7-8.08 103.15-5.23 101.6-2.38 99.08-0.86 96.57 0.65 93.67 0.65ZM87.02 11.8L82.27 11.8 82.27-24.05 86.2-24.05 87.02-18.28 87.02 11.8Z" fill="#d7a49f" data-fill-palette-color="primary"></path><path d="M130.57 0.65L130.57 0.65Q127.07 0.65 124.67-0.34 122.27-1.33 121.01-3.09 119.75-4.85 119.7-7.23L119.7-7.23 124.17-7.23Q124.27-5.15 125.84-4.15 127.4-3.15 130.07-3.15L130.07-3.15Q131.5-3.15 132.66-3.6 133.82-4.05 134.51-4.83 135.2-5.6 135.2-6.58L135.2-6.58Q135.2-7.8 134.3-8.51 133.4-9.22 131.4-9.78L131.4-9.78 126.47-11.45Q123.52-12.45 121.95-14.11 120.37-15.78 120.37-18.1L120.37-18.1Q120.37-21.08 123.02-22.89 125.67-24.7 130.05-24.7L130.05-24.7Q134.57-24.7 137.04-22.79 139.5-20.88 139.6-18L139.6-18 135.02-18Q134.85-19.43 133.61-20.19 132.37-20.95 130.05-20.95L130.05-20.95Q127.87-20.95 126.64-20 125.4-19.05 125.4-17.85L125.4-17.85Q125.4-15.7 129.1-14.65L129.1-14.65 134.27-12.83Q137.22-11.88 138.82-10.38 140.42-8.88 140.42-6.58L140.42-6.58Q140.42-4.73 139.2-3.08 137.97-1.43 135.76-0.39 133.55 0.65 130.57 0.65ZM164.3 0L164.3-24.13 169.07-24.13 169.07 0 164.3 0ZM147.5-8.8L147.5-24.13 152.25-24.13 152.25-9.22Q152.25-6.5 153.58-5.1 154.92-3.7 157.35-3.7L157.35-3.7Q159.4-3.7 160.96-4.78 162.52-5.85 163.41-7.83 164.3-9.8 164.3-12.5L164.3-12.5 165.82-12.5Q165.82-8.28 164.67-5.4 163.52-2.53 161.45-1.04 159.37 0.45 156.6 0.45L156.6 0.45Q153.95 0.45 151.88-0.53 149.82-1.5 148.66-3.54 147.5-5.58 147.5-8.8L147.5-8.8ZM186.54 0.65L186.54 0.65Q184.49 0.65 182.84-0.13 181.19-0.9 180.23-2.46 179.27-4.03 179.27-6.4L179.27-6.4 179.27-30.6 183.99-30.6 183.99-6.55Q183.99-3.15 187.17-3.15L187.17-3.15Q188.14-3.15 189.07-3.36 189.99-3.58 191.17-4L191.17-4 191.84-0.63Q190.52-0.08 189.23 0.29 187.94 0.65 186.54 0.65ZM191.12-20.83L175.59-20.83 175.59-24.05 191.12-24.05 191.12-20.83ZM202.77 0L198.02 0 198.02-24.13 202.77-24.13 202.77 0ZM202.77-10.75L201.47-10.75Q201.47-15.38 202.43-18.44 203.39-21.5 205.13-23 206.87-24.5 209.22-24.5L209.22-24.5Q209.92-24.5 210.53-24.4 211.14-24.3 211.74-24.13L211.74-24.13 211.57-19.4Q210.89-19.58 210.1-19.71 209.32-19.85 208.67-19.85L208.67-19.85Q206.62-19.85 205.32-18.76 204.02-17.68 203.39-15.64 202.77-13.6 202.77-10.75L202.77-10.75ZM235.96 0L231.81 0 231.21-5.53 231.21-15.55Q231.21-18.5 229.99-19.84 228.76-21.18 226.11-21.18L226.11-21.18Q224.61-21.18 223.45-20.74 222.29-20.3 221.63-19.43 220.96-18.55 220.96-17.23L220.96-17.23 215.71-17.23Q215.71-19.88 217.01-21.53 218.31-23.18 220.65-23.94 222.99-24.7 226.11-24.7L226.11-24.7Q229.04-24.7 231.26-23.74 233.49-22.78 234.73-20.73 235.96-18.68 235.96-15.43L235.96-15.43 235.96 0ZM223.76 0.65L223.76 0.65Q220.74 0.65 218.74-0.41 216.74-1.48 215.75-3.2 214.76-4.93 214.76-6.88L214.76-6.88Q214.76-9.25 215.98-10.79 217.19-12.33 219.34-13.08 221.49-13.83 224.29-13.83L224.29-13.83Q226.21-13.83 228.04-13.48 229.86-13.13 231.64-12.55L231.64-12.55 231.64-9.68Q230.19-10.2 228.43-10.51 226.66-10.83 225.14-10.83L225.14-10.83Q222.86-10.83 221.34-9.93 219.81-9.03 219.81-6.88L219.81-6.88Q219.81-5.3 221.01-4.16 222.21-3.03 224.81-3.03L224.81-3.03Q226.71-3.03 228.16-3.89 229.61-4.75 230.41-6.05 231.21-7.35 231.21-8.65L231.21-8.65 232.36-8.65Q232.36-6.15 231.35-4.04 230.34-1.93 228.41-0.64 226.49 0.65 223.76 0.65Z" fill="#ffffff" data-fill-palette-color="secondary"></path></g></svg></g></svg></g></svg></g></svg></g></svg></g></svg></g></svg></g><g><path d="M245.816 0c68.262 0 123.6 55.338 123.6 123.6 0 68.262-55.338 123.6-123.6 123.6-58.428 0-107.388-40.542-120.282-95.029l2.144 0c12.85 53.325 60.867 92.945 118.138 92.945 67.111 0 121.516-54.404 121.515-121.516 0-67.111-54.404-121.516-121.515-121.516-57.271 0-105.288 39.619-118.138 92.945l-2.144 0c12.894-54.487 61.853-95.029 120.282-95.029z" fill="#eaa79c" stroke="transparent" data-fill-palette-color="tertiary"></path></g></svg></g><defs></defs></svg><rect width="395.52" height="247.2" fill="none" stroke="none" visibility="hidden"></rect></g></svg></g></svg>